<svg aria-hidden="true" style="position: absolute; width: 0; height: 0; overflow: hidden;" version="1.1" xmlns="http://www.w3.org/2000/svg" xmlns:xlink="http://www.w3.org/1999/xlink">

<defs>
<symbol id="1" x="10" y="10" width="100" height="100" viewBox="0 0 100 110">
<title>circle</title>
<path d="M10 1.6c-4.639 0-8.4 3.761-8.4 8.4s3.761 8.4 8.4 8.4 8.4-3.761 8.4-8.4c0-4.639-3.761-8.4-8.4-8.4zM14.789 13.061l-1.729 1.729-3.060-3.061-3.061 3.060-1.729-1.729 3.062-3.060-3.061-3.061 1.729-1.728 3.060 3.060 3.061-3.061 1.729 1.729-3.062 3.061 3.061 3.061z"></path>
</symbol>

<symbol id="2" x="0px" y="0px" viewBox="0 0 1000 1000" enable-background="new 0 0 1000 1000" xml:space="preserve">
<title>bridge</title>
<path d="M990,285.6v-61.3H10v61.3h122.5v122.5H10v367.5h122.5c0-135.3,164.5-245,367.5-245s367.5,109.7,367.5,245H990V408.1h-61.3V285.6H990z M193.7,408.1V285.6h122.5v122.5H193.7z M377.5,408.1V285.6H500v122.5H377.5z M561.3,408.1V285.6h122.5v122.5H561.3z M867.5,408.1H745V285.6h122.5V408.1z"/></symbol>

<symbol id="3" viewBox="0 0 20 20">
<title>check</title>
<path d="M8.294 16.998c-0.435 0-0.847-0.203-1.111-0.553l-3.573-4.721c-0.465-0.613-0.344-1.486 0.27-1.951 0.615-0.467 1.488-0.344 1.953 0.27l2.351 3.104 5.911-9.492c0.407-0.652 1.267-0.852 1.921-0.445s0.854 1.266 0.446 1.92l-6.984 11.21c-0.242 0.391-0.661 0.635-1.12 0.656-0.022 0.002-0.042 0.002-0.064 0.002z"></path>
</symbol>
</defs>



</svg>