<?xml version="1.0" encoding="UTF-8" standalone="no"?>
<!DOCTYPE svg PUBLIC "-//W3C//DTD SVG 1.1//EN" "http://www.w3.org/Graphics/SVG/1.1/DTD/svg11.dtd">
<svg width="100%" height="100%" viewBox="0 0 394 394" version="1.1" xmlns="http://www.w3.org/2000/svg" xmlns:xlink="http://www.w3.org/1999/xlink" xml:space="preserve" xmlns:serif="http://www.serif.com/" style="fill-rule:evenodd;clip-rule:evenodd;stroke-linejoin:round;stroke-miterlimit:2;">
    <g transform="matrix(1,0,0,1,-203,-103)">
        <g id="Stamp" transform="matrix(1,0,0,1,203.578,103.549)">
            <g transform="matrix(1,0,0,1,-69.279,-318.75)">
                <path d="M167.509,345.092C123.584,370.452 93.132,410.234 78.735,455.018C79.076,454.964 79.416,454.929 79.75,454.902C82.236,454.95 84.832,454.471 87.338,454.418C101.529,412.719 130.334,375.792 171.509,352.02C192.487,339.908 214.801,332.292 237.378,328.857C242.31,321.056 236.315,328.686 248.927,321.612C249.841,321.099 250.117,320.23 250.375,319.369C237.568,320.36 224.776,322.62 212.171,326.198C212.619,326.765 213.045,327.289 213.469,327.758C212.187,328.824 210.963,329.948 209.868,331.209C209.852,331.228 209.845,331.249 209.829,331.267C207.761,330.241 205.764,329.369 203.879,328.712C198.872,330.377 193.906,332.258 188.985,334.352C188.851,335.632 188.874,337.111 189.055,338.786C187.09,340.012 185.286,341.151 183.709,342.775C183.003,340.916 182.359,339.204 181.721,337.644C176.922,339.92 172.188,342.39 167.509,345.092L167.509,345.092ZM193.18,334.492C193.447,334.195 194.156,335.18 193.898,335.485C192.91,336.648 191.385,337.218 190.134,338.091C189.771,338.319 189.459,338.537 189.11,338.755C189.99,337.371 192.144,335.646 193.18,334.492L193.18,334.492ZM189.044,338.829C189.107,339.405 189.216,339.994 189.319,340.618C189.309,340.611 189.287,340.612 189.277,340.607C188.545,340.196 188.597,339.571 189.044,338.829L189.044,338.829ZM173.04,354.672C91.602,401.691 59.364,501.225 94.357,585.826C95.009,585.716 95.668,585.565 96.336,585.441C61.463,501.661 93.343,402.995 174.04,356.404C193.633,345.092 214.435,337.819 235.506,334.304C235.459,333.643 235.396,332.983 235.304,332.328C213.96,335.872 192.881,343.217 173.04,354.672ZM251.014,319.289C252.297,322.187 255.02,324.144 259.235,321.903C258.945,320.97 258.97,319.912 259.024,318.85C256.352,318.938 253.687,319.091 251.014,319.289ZM259.235,321.903C259.451,322.6 259.85,323.208 260.534,323.715C259.488,324.006 258.441,324.305 257.394,324.59C257.238,324.475 257.065,324.37 256.912,324.255C254.535,323.949 248.946,321.108 249.788,323.352C250.143,324.299 250.547,325.223 250.936,326.154C249.555,326.45 248.175,326.766 246.788,327.033C245.643,327.253 244.43,327.154 243.333,327.548C241.845,328.082 239.325,328.241 237.641,328.814C286.205,321.498 335.888,333.564 375.624,362.057L375.725,362.107C380.032,364.281 384.275,366.697 388.291,368.997L386.122,370.177C392.73,375.665 399.025,381.633 404.908,388.091C405.218,386.979 405.555,385.67 405.949,384.206C407.519,383.874 409.136,383.601 410.657,383.111L411.013,382.978C399.619,370.437 386.789,359.61 372.949,350.611C373.173,350.884 373.382,351.154 373.6,351.426C372.299,350.798 371.465,350.414 369.708,349.56L368.655,349.049C368.901,348.874 369.217,348.691 369.586,348.475C337.664,328.632 300.591,318.296 263.051,318.762C263.034,318.98 262.888,319.223 262.577,319.504C261.375,320.593 260.26,321.358 259.235,321.903L259.235,321.903ZM236.357,332.153C236.555,332.792 236.77,333.43 236.99,334.061C277.764,327.604 319.417,335.262 355.046,355.102C357.246,355.581 359.463,356.054 361.646,356.596C324.34,334.077 279.836,325.193 236.357,332.153ZM86.589,437.746C87.575,437.971 89.053,438.47 90.599,439.004C90.118,440.408 89.66,441.807 89.354,443.223C89.325,443.353 89.331,443.555 89.329,443.742C87.803,442.215 86.282,440.688 84.742,439.173C85.353,438.696 85.969,438.212 86.589,437.746L86.589,437.746ZM195.759,394.022C187.24,398.94 179.456,404.632 172.399,410.937C173.444,410.856 174.59,410.762 175.635,410.729C182.075,405.19 189.133,400.157 196.759,395.754C223.646,380.231 253.574,374.762 282.188,378.222C281.808,377.513 281.441,376.818 281.125,376.13C252.488,372.935 222.622,378.513 195.759,394.022L195.759,394.022ZM79.287,461.412C78.159,462.12 77.119,462.927 76.154,463.798C73.035,475.306 70.962,487.099 69.966,499.017C72.409,499.004 74.893,499.378 77.34,499.414L77.936,499.322C79.049,486.259 81.505,473.36 85.273,460.842C84.403,460.558 83.558,459.368 82.698,459.695C81.458,460.166 80.333,460.755 79.287,461.412L79.287,461.412ZM170.195,412.931C166.888,416.015 163.748,419.233 160.792,422.582L162.364,422.18C162.646,422.372 162.909,422.624 163.177,422.901C163.256,422.813 163.348,422.736 163.428,422.648L163.053,421.998C163.461,421.89 163.872,421.795 164.28,421.687C167.434,418.269 170.784,415.005 174.318,411.886C172.965,412.273 171.619,412.648 170.249,412.9L170.195,412.931L170.195,412.931ZM160.792,422.582C134.095,452.823 121.803,493.315 126.891,533.051C127.581,533.157 128.27,533.202 128.962,533.263C128.932,533.041 128.894,532.819 128.866,532.597L128.13,532.011L128.782,532.14C124.015,493.521 135.894,454.277 161.592,424.718L160.59,424.358C160.582,423.556 160.664,422.975 160.792,422.582ZM198.322,398.46C186.368,405.362 175.853,413.831 166.92,423.446C167.188,424.508 167.408,425.483 167.573,426.389C169.737,427.218 172.345,428.911 171.008,428.339C169.859,427.847 168.752,427.415 167.664,426.986C168.658,433.079 167.155,435.597 163.375,436.932C162.876,436.176 162.471,435.395 162.264,434.506C161.854,432.752 161.522,431.242 161.274,429.917C137.856,458.627 127.268,495.954 132.001,532.591C132.701,532.649 133.32,532.649 133.781,532.61C134.188,532.575 134.636,532.492 135.136,532.332C135.149,532.639 135.163,533.123 135.172,533.394C136.812,533.351 138.48,533.319 140.148,533.264C137.354,513.853 139.168,494.191 145.145,475.855L145.129,475.828C144.76,475.401 144.552,474.839 144.405,474.262L145.56,473.45L145.986,473.313C152.063,455.913 161.934,439.806 175.239,426.293C174.892,425.871 174.534,425.45 174.129,425.058C173.836,424.526 172.769,422.593 171.913,421.032C174.906,421.675 178.002,422.558 179.779,420.532C180.797,419.372 181.705,418.248 182.586,417.144C182.934,417.626 183.254,418.099 183.554,418.57C189.296,413.702 195.553,409.26 202.306,405.362C226.189,391.573 252.669,386.44 278.143,388.965C278.749,387.985 278.922,387.155 278.715,386.145C279.398,386.089 280.207,386.022 281.029,385.964C281.325,385.564 281.635,385.174 281.938,384.789C281.95,385.064 282.027,385.287 282.216,385.458C282.167,385.597 282.152,385.747 282.102,385.885C282.5,385.859 282.841,385.826 283.245,385.803C283.459,385.82 283.702,385.832 283.974,385.815C284.017,386.004 284.076,386.191 284.12,386.38C284.319,386.162 284.524,385.956 284.726,385.742C284.763,385.741 284.801,385.751 284.838,385.749C284.834,385.739 284.854,385.717 284.849,385.706C285.465,385.609 286.186,385.473 287.034,385.239L286.57,385.687C286.829,385.681 287.11,385.67 287.353,385.668C286.842,385.908 286.337,386.156 285.829,386.403L285.312,386.882C285.286,386.818 285.272,386.769 285.245,386.704C284.957,386.847 284.661,386.987 284.375,387.134L284.294,387.181C284.34,387.37 284.393,387.558 284.44,387.747C283.841,388.325 283.221,388.897 282.626,389.48C301.315,392.005 319.33,398.692 335.243,409.114C335.226,408.657 335.236,408.934 335.221,408.514C336.232,408.567 337.383,408.978 338.704,409.859C340.03,410.743 340.875,412.097 341.6,413.563C354.996,423.564 366.64,436.371 375.535,451.778C375.853,452.329 376.152,452.89 376.461,453.444C376.544,453.17 376.612,452.891 376.705,452.617C379.658,452.736 382.415,452.77 385.071,452.731C385.238,454.029 385.393,455.21 385.536,456.288C385.259,456.681 384.969,457.091 384.685,457.501C382.041,456.583 379.618,455.821 377.376,455.153C383.677,466.857 387.976,479.11 390.341,491.547C390.418,491.058 390.521,490.568 390.617,490.088L390.675,490.126C393.442,491.216 396.128,492.434 398.827,493.683C396.455,478.939 391.575,464.355 384.03,450.554C381.701,450.485 379.496,450.416 377.629,450.28C377.903,449.608 378.133,448.916 378.403,448.245C379.185,447.128 380.001,446.067 380.842,445.033C342.903,382.72 261.836,361.79 198.322,398.46L198.322,398.46ZM284.294,387.182C284.23,386.917 284.182,386.646 284.12,386.38C283.559,386.994 282.996,387.607 282.454,388.244C283.15,387.801 283.805,387.439 284.294,387.182ZM282.454,388.244C281.937,388.574 281.438,388.931 280.893,389.29C281.107,389.316 281.326,389.322 281.54,389.349C281.842,388.981 282.146,388.606 282.454,388.244L282.454,388.244ZM285.246,386.705C285.441,386.608 285.634,386.499 285.83,386.404L286.571,385.687C286.008,385.7 285.446,385.722 284.838,385.749C284.973,386.083 285.117,386.396 285.246,386.705L285.246,386.705ZM282.102,385.885L281.029,385.964C280.264,386.998 279.506,388.04 278.791,389.024C279.452,389.093 280.105,389.177 280.764,389.256C281.249,388.15 281.69,387.021 282.102,385.885L282.102,385.885ZM135.172,533.394C134.151,533.421 133.134,533.438 132.121,533.423C132.217,534.127 132.295,534.832 132.402,535.535C134.939,537.576 135.306,537.355 135.172,533.394L135.172,533.394ZM167.664,426.986C167.634,426.797 167.608,426.584 167.573,426.389C166.9,426.132 166.263,425.962 165.811,425.963L165.098,425.978C165.94,426.292 166.778,426.636 167.664,426.986ZM165.098,425.978L164.725,425.832C164.679,425.884 164.656,425.955 164.609,426.007L165.098,425.978L165.098,425.978ZM197.942,402.865L198.086,402.927C198.089,402.95 198.086,402.973 198.09,402.997C198.036,402.952 197.996,402.912 197.942,402.866L197.942,402.865ZM281.97,376.219C282.115,376.895 282.247,377.574 282.386,378.252C282.43,378.257 282.471,378.281 282.514,378.286C282.395,377.592 282.333,376.901 282.307,376.241L281.97,376.219L281.97,376.219ZM69.863,500.339C69.097,510.312 69.077,520.387 69.85,530.441C71.738,530.218 73.617,530.086 75.454,530.273C74.995,532.446 74.312,534.61 73.983,536.787C72.984,537.037 71.844,537.266 70.536,537.442C73.482,563.453 81.673,589.295 95.592,613.403C106.822,632.853 120.91,649.651 136.98,663.589C137.683,661.905 138.422,660.249 138.787,658.469C138.97,657.573 138.865,656.643 138.666,655.76C139.797,656.366 140.971,656.941 142.132,657.512C126.755,644.148 113.282,628.042 102.521,609.403C88.864,585.749 80.92,560.368 78.25,534.865C77.439,535.603 76.218,536.161 74.575,536.626C75.251,534.709 75.961,532.642 76.656,530.48C77.068,530.557 77.486,530.625 77.89,530.742C77.158,521.865 77.075,512.994 77.597,504.173C76.989,503.691 76.262,503.327 75.418,503.086C74.143,502.72 72.798,502.364 71.405,502.01C70.892,501.455 70.38,500.888 69.863,500.339L69.863,500.339ZM285.046,376.608C284.85,377.25 284.654,377.891 284.461,378.534C318.051,383.16 349.637,400.104 372.112,427.413C370.588,424.861 369.376,422.838 368.609,421.533C368.785,421.314 368.951,421.093 369.13,420.871C368.85,420.564 368.559,420.261 368.277,419.957C368.176,420.091 368.065,420.219 367.965,420.353C367.645,419.775 367.36,419.225 367.14,418.737C345.024,395.448 315.868,380.928 285.046,376.608ZM287.431,382.989C287.512,383.567 287.604,384.121 287.659,384.698C288.054,384.805 288.364,384.906 288.742,385.011L288.115,385.3C287.553,384.843 287.023,384.376 286.504,383.885C286.813,383.584 287.117,383.281 287.431,382.989ZM288.602,385.705C289.504,385.734 290.265,385.753 290.587,385.894C291.014,386.082 290.886,386.552 290.519,387.088C289.864,386.639 289.219,386.188 288.602,385.705L288.602,385.705ZM297.005,390.885C297.945,390.459 298.906,390.043 299.872,389.663C300.95,391.011 301.979,392.411 302.98,393.859C301.038,392.923 299.065,391.952 297.005,390.885ZM369.813,361.804C369.253,362.227 368.674,362.642 368.14,363.094C368.981,363.66 369.819,364.24 370.652,364.82C371.286,364.464 371.929,364.11 372.546,363.726C371.635,363.085 370.733,362.428 369.813,361.804ZM73.783,538.815C73.777,539.259 73.787,539.711 73.835,540.156C73.944,541.173 74.074,542.065 74.223,542.891L73.429,543.891C72.894,544.212 72.34,544.49 71.774,544.774C72.183,543.368 72.929,541.215 73.783,538.815L73.783,538.815ZM382.708,372.076C382.254,372.339 381.818,372.618 381.37,372.885C388.9,379.003 395.99,385.769 402.566,393.159C402.709,392.462 402.938,391.318 403.063,390.708C396.864,383.855 390.218,377.546 383.195,371.795L382.708,372.077L382.708,372.076ZM141.036,538.489C140.958,538.791 140.877,539.1 140.811,539.412C139.033,540.431 136.584,541.889 133.872,543.455C134.562,546.681 135.361,549.901 136.298,553.096C138.694,551.509 141.033,550.027 143.348,548.556C142.436,545.222 141.666,541.854 141.036,538.489L141.036,538.489ZM411.06,383.059C412.094,386.872 412.052,389.842 412.536,395.991C412.402,396.156 412.241,396.307 412.089,396.466C418.23,404.061 423.865,412.238 428.904,420.966C447.164,452.594 455.191,487.314 454.065,521.296C454.493,521.473 454.921,521.655 455.304,521.879C458.702,522.175 458.554,522.008 458.796,522.678C458.256,523.529 457.957,524.706 458.213,525.793C458.933,525.492 459.665,525.227 460.403,524.961L460.477,525.027C459.717,525.372 458.902,525.736 458.268,526.014C458.592,527.057 459.463,527.996 461.186,528.442C461.357,528.301 461.521,528.148 461.692,528.006C464.177,490.527 455.984,451.932 435.805,416.981C428.639,404.57 420.317,393.258 411.06,383.059L411.06,383.059ZM458.268,526.014C458.245,525.941 458.23,525.867 458.213,525.793C457.26,526.191 456.341,526.621 455.436,527.108C456.271,526.84 457.207,526.477 458.268,526.014L458.268,526.014ZM455.436,527.108C454.852,527.295 454.306,527.441 453.767,527.53C450.452,577.481 427.335,625.333 387.632,658.919C387.884,659.261 388.125,659.627 388.343,660.024C388.024,659.738 387.683,659.442 387.339,659.16C387.002,659.444 386.65,659.725 386.311,660.006C387.296,661.133 388.357,662.193 389.496,663.147C389.81,664.696 389.596,665.896 388.461,665.729C386.732,665.475 384.997,665.145 383.294,664.779C383.471,663.922 383.587,663.04 383.697,662.165C376.306,668.083 368.384,673.496 359.931,678.376C337.501,691.326 313.523,699.15 289.356,702.199C289.67,705.265 289.911,707.528 289.896,708.635C289.636,708.875 289.358,709.076 289.097,709.313C288.419,708.612 287.035,706.537 285.192,703.737C285.815,703.33 286.462,702.926 287.132,702.473C235.552,708.353 183.301,692.571 143.532,658.688C141.816,663.492 140.92,665.648 140.61,666.689C202.043,717.384 290.945,727.479 363.947,685.331C369.179,682.31 374.187,679.063 379.032,675.648C378.93,675.312 378.84,674.963 378.733,674.629C379.172,673.587 379.747,672.57 380.328,671.58C381.939,671.651 383.994,670.275 385.175,671.163C408.072,653.663 426.23,631.81 439.145,607.455C439.011,607.47 438.871,607.47 438.727,607.48C439.206,604.192 439.663,600.897 440.137,597.609C440.864,598.773 441.632,600.166 442.112,601.592C442.974,599.827 443.811,598.037 444.619,596.248C443.256,595.552 441.963,594.748 440.67,593.909C440.718,593.57 440.758,593.231 440.805,592.892C442.216,593.572 443.769,594.538 445.003,595.413C452.067,579.578 457.014,562.883 459.72,545.779C458.846,544.669 457.653,543.38 456.18,541.834C457.554,541.355 458.973,541.018 460.42,540.865C460.52,540.108 460.64,539.351 460.731,538.592C459.791,537.834 458.885,537.066 457.988,536.279C457.404,535.765 458.329,537.786 458.502,538.544C457.471,539.111 456.536,539.904 455.413,540.256C455.221,540.316 455.002,540.341 454.805,540.39C454.347,539.92 453.976,539.521 453.461,539.001C453.438,538.978 453.41,538.958 453.387,538.935C453.556,536.527 454.513,534.038 454.223,531.633C454.061,530.286 453.93,529.182 453.773,528.103C454.313,527.756 454.872,527.411 455.436,527.108L455.436,527.108ZM129.212,546.073C129.977,549.448 130.864,552.806 131.889,556.146C132.455,555.734 133.034,555.338 133.609,554.937C132.618,551.657 131.777,548.366 131.041,545.053C130.441,545.389 129.824,545.737 129.212,546.072L129.212,546.073ZM403.11,390.789C402.937,391.824 402.84,392.68 402.761,393.372L402.776,393.399L403.181,393.851C403.35,393.4 403.598,392.51 403.873,391.611C403.623,391.331 403.361,391.067 403.11,390.789L403.11,390.789ZM409.582,389.686C409.502,389.706 409.405,389.828 409.324,390.052C409.045,390.817 408.849,391.582 408.679,392.373C409.346,393.151 409.999,393.941 410.655,394.732C410.459,392.786 410.067,389.569 409.582,389.686ZM406.299,397.5C406.695,397.975 407.099,398.46 407.491,398.94C407.646,399.009 407.812,399.067 407.965,399.136C407.983,398.736 408.013,398.34 408.033,397.942C407.466,397.798 406.874,397.647 406.299,397.5L406.299,397.5ZM408.033,397.942C408.558,398.075 409.039,398.198 409.554,398.326C409.077,397.737 408.615,397.131 408.132,396.55C408.099,397.014 408.057,397.475 408.033,397.942L408.033,397.942ZM407.965,399.136C407.96,399.257 407.964,399.378 407.959,399.5C408.058,399.622 408.149,399.753 408.247,399.875C408.384,399.736 408.509,399.594 408.656,399.458C408.425,399.352 408.2,399.242 407.965,399.136L407.965,399.136ZM408.656,399.458C409.366,399.786 410.07,400.116 410.746,400.453C410.696,401.235 410.617,402.023 410.551,402.803C415.585,409.307 420.266,416.192 424.493,423.513C463.926,491.813 454.409,574.928 406.852,632.27C407.969,632.383 408.471,632.532 407.52,632.678C407.179,632.73 406.736,632.815 406.316,632.904C392.906,648.924 376.529,662.912 357.384,673.965C339.237,684.442 320.035,691.454 300.558,695.227C300.602,695.442 300.656,695.635 300.65,695.823C300.565,696.032 300.169,696.98 300.136,697.058C299.994,697.201 299.819,697.315 299.626,697.425C319.769,693.678 339.632,686.524 358.384,675.697C447.019,624.524 477.371,511.163 426.198,422.528C421.264,413.983 415.761,405.98 409.749,398.539C409.377,398.843 408.997,399.144 408.656,399.458L408.656,399.458ZM94.976,587.273C97.931,594.25 101.314,601.127 105.2,607.856C136.28,661.689 190.316,694.033 247.804,699.667C247.806,699.141 247.796,698.707 247.801,698.225L251.638,697.995C250.359,697.895 249.086,697.805 247.81,697.679C191.007,692.062 137.653,660.068 106.931,606.856C103.605,601.095 100.644,595.223 98.008,589.275C96.978,588.704 95.965,588.007 94.976,587.273L94.976,587.273ZM146.693,559.038C146.449,559.487 146.229,559.941 146.048,560.421C145.655,561.467 145.424,562.576 145.264,563.688C143.892,564.436 142.409,565.231 140.841,566.026C143.138,571.654 145.81,577.195 148.934,582.606C153.519,590.548 158.809,597.832 164.652,604.456C164.445,601.309 164.51,598.779 164.838,596.59L165.224,596.259C166.22,596.233 167.143,596.212 168.12,596.212C163.629,590.785 159.53,584.897 155.889,578.591C152.219,572.234 149.158,565.695 146.693,559.038L146.693,559.038ZM136.257,568.275C138.613,573.999 141.37,579.63 144.55,585.138C150.813,595.985 158.322,605.667 166.773,614.129C166.531,613.506 166.306,612.879 166.086,612.252C166.498,612.168 166.917,612.046 167.325,611.898C159.334,603.755 152.224,594.492 146.255,584.153C143.095,578.68 140.387,573.072 138.052,567.383C137.441,567.685 136.866,567.978 136.257,568.275L136.257,568.275ZM383.407,439.475C382.824,439.83 382.257,440.184 381.664,440.518C382.098,441.193 382.524,441.87 382.948,442.555C383.189,442.289 383.439,442.03 383.685,441.769C383.792,442.644 383.875,443.336 383.986,444.229C384.382,444.889 384.783,445.547 385.17,446.216C410.681,490.403 408.973,542.835 385.241,584.089C385.62,584.9 385.813,585.341 386.255,586.283C410.979,544.249 413.019,490.452 386.902,445.216C385.773,443.261 384.614,441.354 383.407,439.475L383.407,439.475ZM171.248,599.818C171.393,600.822 171.536,601.842 171.738,602.855C171.064,603.501 170.298,604.108 169.669,604.771C168.867,605.618 168.104,606.517 167.32,607.39C168.259,608.393 169.194,609.4 170.159,610.37C171.127,609.697 172.084,608.875 172.998,607.973C173.682,610.491 174.427,612.905 175.192,615.15C181.369,620.741 188.02,625.682 195.011,629.977L195.399,629.898C195.33,629.966 195.255,630.026 195.186,630.092C196.061,630.628 196.916,631.171 197.802,631.685C197.254,630.995 196.867,630.276 196.711,629.609C198.819,629.19 200.911,628.956 203.022,628.852C205.321,633.397 205.164,632.292 205.832,628.781C206.138,628.78 206.437,628.794 206.743,628.797C206.551,630.693 206.089,632.526 205.193,634.238C204.944,634.715 204.565,634.973 204.096,635.088C210.294,638.264 216.699,640.954 223.284,643.134L223.485,642.982C224.087,642.743 224.663,642.498 225.218,642.234C225.047,642.457 224.913,642.605 224.736,642.837C224.581,643.04 224.46,643.269 224.313,643.479C240.324,648.638 257.265,650.792 274.222,649.737C275.686,645.816 277.534,643.242 279.832,641.266C271.953,642.147 264.045,642.282 256.225,641.689C258.236,642.573 259.721,643.323 260.74,644.134C258.238,644.127 255.729,643.911 253.429,644.097C254.001,643.419 254.5,642.885 254.891,642.567C255.292,642.242 255.719,641.96 256.155,641.693C224.098,639.247 193.422,624.633 171.248,599.818L171.248,599.818ZM174.141,618.391C173.524,618.723 172.994,619.125 172.577,619.619C185.959,631.558 201.353,640.644 217.838,646.639C218.563,646.218 219.266,645.785 219.972,645.335C203.28,639.475 187.667,630.4 174.141,618.391ZM217.838,646.639C253.649,659.662 294.503,658.078 330.558,639.188L331.008,638.531C330.85,638.101 330.491,637.764 329.872,637.563C329.753,637.524 329.649,637.51 329.531,637.471C295.372,655.328 256.858,657.466 222.6,646.2C222.593,646.212 222.595,646.23 222.589,646.242C221.637,646.116 220.682,646.089 219.701,646.178C219.099,646.232 218.458,646.403 217.838,646.64L217.838,646.639ZM331.008,638.531C331.05,638.644 331.072,638.791 331.087,638.918C332.15,638.355 333.22,637.779 334.274,637.187C334.032,636.614 333.73,636.019 333.382,635.392L333.22,635.486C332.495,636.47 331.738,637.478 331.008,638.53L331.008,638.531ZM391.373,498.024C394.95,524.181 390.237,550.729 378.187,573.872C378.654,574.688 379.164,575.631 379.566,576.324C379.418,576.662 379.314,576.914 379.221,577.1C379.346,576.936 379.532,576.787 379.738,576.621C380.377,577.718 380.947,578.633 381.433,579.432C381.005,579.256 380.563,579.083 380.117,578.965C378.713,578.593 377.301,578.315 375.876,578.057C365.108,596.962 349.352,613.362 329.134,625.035C328.249,625.546 327.343,626.024 326.451,626.512C326.56,626.627 326.686,626.741 326.793,626.855C326.946,626.878 327.107,626.887 327.259,626.911C327.652,626.975 327.936,627.596 328.094,628.233C329.285,629.57 330.306,630.836 331.177,632.01C328.571,633.125 325.991,634.315 323.436,635.541L321.282,634.872C320.821,633.69 320.483,632.411 319.96,631.27C320.301,630.788 320.633,630.106 320.951,629.362C308.464,635.423 295.418,639.252 282.265,640.98C282.466,641.36 282.674,641.737 282.894,642.133C280.772,644.666 278.6,647.157 276.385,649.608C276.887,649.568 277.386,649.507 277.888,649.462C279.748,647.327 281.581,645.16 283.379,642.972C284.271,644.516 285.287,646.169 286.463,647.939C286.267,647.953 286.045,647.943 285.862,647.961C285.261,648.019 285.803,648.043 286.584,648.086L286.646,648.194C285.931,648.386 285.081,648.553 283.881,648.78C299.196,646.709 314.367,641.97 328.741,634.355L328.795,634.323C329.851,633.555 330.702,632.982 331.496,632.439L331.711,632.748C332.18,632.483 332.651,632.206 333.118,631.936C335.333,630.657 337.514,629.344 339.628,627.961C340.455,626.958 341.222,625.912 341.874,624.788C342.058,624.862 342.228,624.947 342.406,625.022C342.498,625.32 342.591,625.594 342.681,625.874C346.84,622.988 350.793,619.918 354.532,616.65C354.042,616.016 353.524,615.393 352.992,614.796C353.294,614.671 353.594,614.548 353.894,614.42C355.415,613.773 356.809,612.788 358.404,612.357C358.629,612.297 358.828,612.41 359.045,612.529C368.814,603.168 376.955,592.495 383.374,580.981C383.23,581.002 383.097,580.998 382.956,581.006C382.969,580.697 382.976,580.386 382.998,580.08C382.824,580.013 382.654,579.945 382.482,579.873L382.925,579.328C382.64,578.648 382.399,578.075 382.11,577.417L382.979,579.297C383.219,579.003 383.458,578.711 383.696,578.414C383.872,578.694 384.061,579.015 384.243,579.361C398.122,553.648 403.48,523.805 398.978,494.571C397.123,496.104 394.253,497.067 391.373,498.024L391.373,498.024ZM382.979,579.297C382.967,579.312 382.937,579.313 382.925,579.328C383.126,579.809 383.338,580.278 383.513,580.721C383.535,580.68 383.567,580.645 383.59,580.604L382.979,579.297L382.979,579.297ZM328.094,628.233C327.696,627.786 327.229,627.321 326.793,626.855C326.539,626.817 326.273,626.795 326.018,626.762C325.723,626.921 325.416,627.051 325.12,627.208C325.811,627.937 326.67,628.738 327.829,629.649C328.25,629.98 328.306,629.09 328.094,628.233L328.094,628.233ZM199.549,623.712C198.755,625.418 197.761,627.08 196.644,628.493C196.772,626.743 198.061,625.183 199.549,623.712ZM379.198,577.186C379.09,577.336 379.02,577.459 378.994,577.52C379.029,577.47 379.104,577.37 379.198,577.186ZM382.038,580.417C382.188,580.656 382.277,580.791 382.409,580.997C381.974,580.961 381.699,580.84 381.896,580.608C381.947,580.548 381.988,580.478 382.039,580.417L382.038,580.417ZM383.129,587.618C377.575,596.637 370.926,605.075 363.271,612.723C364.3,612.629 365.372,612.493 366.494,612.306C372.85,605.713 378.479,598.561 383.345,590.993C383.272,589.867 383.201,588.745 383.129,587.618ZM280.635,648.344C280.612,648.628 280.62,648.918 280.658,649.197L281.088,649.129C280.944,648.877 280.773,648.585 280.635,648.344L280.635,648.344ZM356.164,619.352C352.245,622.748 348.1,625.958 343.734,628.946C344.001,629.642 344.28,630.276 344.533,630.83C348.888,627.868 353.021,624.684 356.94,621.321C356.717,620.647 356.458,619.989 356.164,619.352ZM243.032,698.525L246.911,698.307C245.773,698.89 244.393,699.009 243.032,698.525ZM251.121,698.474C250.542,698.796 252.017,699.178 257.862,699.525C257.837,699.803 257.821,700.078 257.8,700.355C270.594,700.913 283.518,700.171 296.33,698.028C294.525,697.991 292.374,697.554 290.27,696.908C290.263,696.906 290.25,696.925 290.243,696.924C277.714,698.611 265.117,698.985 252.665,698.087C251.968,698.199 251.366,698.337 251.121,698.474L251.121,698.474ZM414.605,635.949C415.449,636.433 416.226,636.855 417.43,637.529C416.368,636.974 415.325,636.409 414.605,635.949Z" style="fill:rgb(212,0,0);fill-rule:nonzero;"/>
                <g transform="matrix(0.949156,0.314807,-0.314807,0.949156,62.5385,306.214)">
                    <g transform="matrix(-10.7085,28.0237,-28.0237,-10.7085,401.534,179.918)">
                        <path d="M0.511,-0.328C0.511,-0.248 0.509,-0.192 0.505,-0.159C0.501,-0.126 0.49,-0.096 0.47,-0.068C0.45,-0.041 0.424,-0.02 0.39,-0.005C0.357,0.009 0.318,0.017 0.273,0.017C0.231,0.017 0.193,0.01 0.159,-0.004C0.125,-0.018 0.098,-0.039 0.078,-0.066C0.057,-0.094 0.045,-0.124 0.041,-0.157C0.037,-0.189 0.035,-0.246 0.035,-0.328L0.035,-0.463C0.035,-0.542 0.037,-0.599 0.041,-0.632C0.045,-0.665 0.056,-0.695 0.076,-0.722C0.096,-0.75 0.122,-0.771 0.156,-0.785C0.189,-0.8 0.228,-0.807 0.273,-0.807C0.315,-0.807 0.353,-0.8 0.387,-0.786C0.421,-0.773 0.448,-0.752 0.468,-0.724C0.489,-0.696 0.501,-0.666 0.505,-0.634C0.509,-0.601 0.511,-0.544 0.511,-0.463L0.511,-0.328ZM0.305,-0.587C0.305,-0.624 0.303,-0.648 0.299,-0.658C0.295,-0.668 0.287,-0.673 0.274,-0.673C0.263,-0.673 0.255,-0.669 0.249,-0.661C0.244,-0.653 0.241,-0.628 0.241,-0.587L0.241,-0.218C0.241,-0.172 0.243,-0.144 0.246,-0.133C0.25,-0.123 0.259,-0.117 0.272,-0.117C0.286,-0.117 0.295,-0.123 0.299,-0.136C0.303,-0.148 0.305,-0.178 0.305,-0.224L0.305,-0.587Z" style="fill:rgb(212,0,0);fill-rule:nonzero;"/>
                    </g>
                    <g transform="matrix(-0.218977,0.97573,-0.97573,-0.218977,626.005,-74.8078)">
                        <path d="M272.341,139.284L275.845,139.284L279.302,149.963L279.302,139.284L284.458,139.284L284.458,163L279.053,163L275.845,152.219L275.845,163L270.688,163L270.688,148.288C272.734,148.288 274.395,146.159 274.395,143.537C274.395,141.676 273.558,140.063 272.341,139.284Z" style="fill:rgb(212,0,0);fill-rule:nonzero;"/>
                    </g>
                    <g transform="matrix(0.0185708,0.999828,-0.999828,0.0185708,566.018,-129.921)">
                        <path d="M254.315,147.018L255.341,139.284L264.254,139.284L267.781,163L261.479,163L261.148,158.737L258.942,158.737L258.571,163L252.195,163L253.768,151.14C253.814,151.141 253.86,151.142 253.906,151.142C255.613,151.142 257,150.214 257,149.071C257,148.021 255.83,147.152 254.315,147.018ZM260.986,154.533C260.674,151.847 260.361,148.527 260.047,144.572C259.418,149.113 259.024,152.434 258.863,154.533L260.986,154.533Z" style="fill:rgb(212,0,0);fill-rule:nonzero;"/>
                    </g>
                    <g transform="matrix(0.250845,0.968027,-0.968027,0.250845,500.188,-170.129)">
                        <path d="M228.846,160.618L226.363,139.284L232.354,139.284L233.636,155.559C233.863,151.419 234.432,145.994 235.341,139.284L241.745,139.284C241.83,139.978 242.054,142.585 242.418,147.106L243.099,156.13C243.45,150.389 244.023,144.774 244.82,139.284L250.811,139.284L248.065,163L240.366,163C240.349,162.913 240.332,162.826 240.315,162.738L241.511,162.217L240.217,162.217C239.573,158.766 239,154.881 238.499,150.563C238.263,152.472 237.727,156.357 236.891,162.217L236.253,162.217L236.755,160.144L233.625,161.071L232,158.071L230.375,161.071L228.846,160.618Z" style="fill:rgb(212,0,0);fill-rule:nonzero;"/>
                    </g>
                    <g transform="matrix(0.402357,0.915483,-0.915483,0.402357,453.985,-191.521)">
                        <path d="M223.434,153.171C223.434,155.554 223.377,157.241 223.265,158.232C223.153,159.223 222.801,160.129 222.21,160.949C221.62,161.77 220.821,162.399 219.815,162.839C218.81,163.278 217.638,163.498 216.3,163.498C215.03,163.498 213.89,163.291 212.879,162.875C211.869,162.46 211.056,161.838 210.44,161.008C209.825,160.178 209.459,159.274 209.342,158.298C209.225,157.321 209.166,155.612 209.166,153.171L209.166,149.113C209.166,146.73 209.222,145.043 209.334,144.052C209.447,143.061 209.798,142.155 210.389,141.335C210.98,140.515 211.778,139.885 212.784,139.445C213.79,139.006 214.962,138.786 216.3,138.786C217.569,138.786 218.709,138.994 219.72,139.409C220.731,139.824 221.544,140.446 222.159,141.276C222.774,142.106 223.141,143.01 223.258,143.986C223.375,144.963 223.434,146.672 223.434,149.113L223.434,153.171ZM217.267,145.378C217.267,144.274 217.206,143.569 217.083,143.261C216.961,142.954 216.71,142.8 216.329,142.8C216.007,142.8 215.76,142.924 215.589,143.173C215.418,143.422 215.333,144.157 215.333,145.378L215.333,156.452C215.333,157.829 215.389,158.679 215.501,159.001C215.614,159.323 215.875,159.484 216.285,159.484C216.705,159.484 216.974,159.299 217.091,158.928C217.208,158.557 217.267,157.673 217.267,156.276L217.267,145.378ZM221.2,150.957C221.472,150.908 221.652,150.648 221.603,150.376L221.237,148.34C221.188,148.068 220.928,147.887 220.656,147.936L219.672,148.113C219.4,148.162 219.22,148.422 219.269,148.694L219.635,150.731C219.684,151.002 219.944,151.183 220.216,151.134L221.2,150.957Z" style="fill:rgb(212,0,0);fill-rule:nonzero;"/>
                    </g>
                    <g transform="matrix(16.2097,25.2438,-25.2438,16.2097,376.078,42.6137)">
                        <path d="M0.041,-0.791L0.187,-0.791C0.284,-0.791 0.349,-0.787 0.384,-0.779C0.418,-0.772 0.446,-0.753 0.468,-0.722C0.489,-0.691 0.5,-0.642 0.5,-0.575C0.5,-0.513 0.492,-0.472 0.477,-0.451C0.462,-0.43 0.432,-0.417 0.387,-0.413C0.427,-0.403 0.455,-0.389 0.469,-0.372C0.483,-0.355 0.491,-0.34 0.495,-0.325C0.498,-0.311 0.5,-0.272 0.5,-0.208L0.5,-0L0.309,-0L0.309,-0.263C0.309,-0.305 0.306,-0.331 0.299,-0.341C0.292,-0.351 0.275,-0.356 0.247,-0.356L0.247,-0L0.041,-0L0.041,-0.791ZM0.247,-0.655L0.247,-0.479C0.27,-0.479 0.286,-0.483 0.295,-0.489C0.304,-0.495 0.309,-0.516 0.309,-0.551L0.309,-0.594C0.309,-0.619 0.305,-0.636 0.296,-0.644C0.287,-0.651 0.27,-0.655 0.247,-0.655Z" style="fill:rgb(212,0,0);fill-rule:nonzero;"/>
                    </g>
                    <g transform="matrix(0.705287,0.708922,-0.708922,0.705287,352.122,-212.602)">
                        <path d="M180.024,163.496C178.701,163.472 177.526,163.238 176.501,162.795C175.417,162.326 174.606,161.716 174.069,160.964C173.532,160.212 173.215,159.418 173.117,158.583C173.019,157.749 172.97,155.993 172.97,153.317L172.97,139.284L179.137,139.284L179.137,157.067C179.137,158.103 179.194,158.764 179.306,159.052C179.418,159.34 179.645,159.484 179.987,159.484C180.378,159.484 180.629,159.326 180.741,159.008C180.854,158.691 180.91,157.941 180.91,156.76L180.91,139.284L187.077,139.284L187.077,155.134C187.077,156.931 187.018,158.193 186.901,158.92C186.877,159.071 186.843,159.222 186.799,159.373C186.711,159.362 186.621,159.356 186.53,159.356L182.095,159.356C180.952,159.356 180.024,160.284 180.024,161.427L180.024,163.496Z" style="fill:rgb(212,0,0);fill-rule:nonzero;"/>
                    </g>
                    <g transform="matrix(23.8485,18.2002,-18.2002,23.8485,339.484,11.0314)">
                        <path d="M0.385,-0.791L0.385,-0.632L0.232,-0.158L0.385,-0.158L0.385,-0L0.006,-0L0.006,-0.115L0.164,-0.632L0.024,-0.632L0.024,-0.791L0.385,-0.791Z" style="fill:rgb(212,0,0);fill-rule:nonzero;"/>
                    </g>
                    <g transform="matrix(0.869396,0.494116,-0.494116,0.869396,274.173,-213.363)">
                        <path d="M141.184,145.938L141.184,139.284L146.34,139.284L149.797,149.963L149.797,139.284L154.954,139.284L154.954,163L149.548,163L146.34,152.219L146.34,163L141.184,163L141.184,147.151L145.052,148.458C145.202,148.509 145.365,148.428 145.416,148.278L145.6,147.733C145.65,147.583 145.57,147.42 145.419,147.369L141.184,145.938Z" style="fill:rgb(212,0,0);fill-rule:nonzero;"/>
                    </g>
                    <g transform="matrix(28.765,8.51922,-8.51922,28.765,293.176,-10.1889)">
                        <path d="M0.041,-0.791L0.384,-0.791L0.384,-0.632L0.247,-0.632L0.247,-0.482L0.375,-0.482L0.375,-0.332L0.247,-0.332L0.247,-0.158L0.397,-0.158L0.397,-0L0.041,-0L0.041,-0.791Z" style="fill:rgb(212,0,0);fill-rule:nonzero;"/>
                    </g>
                    <g transform="matrix(0.994747,0.102361,-0.102361,0.994747,175.356,-186.767)">
                        <path d="M121.478,141.149C121.811,141.553 122.062,141.991 122.23,142.465C122.601,143.514 122.786,145.145 122.786,147.358L122.786,149.611L116.619,149.611L116.619,145.489C116.619,144.291 116.553,143.543 116.422,143.246C116.29,142.948 115.999,142.8 115.55,142.8C115.042,142.8 114.72,142.98 114.583,143.342C114.446,143.703 114.378,144.484 114.378,145.686L114.378,156.701C114.378,157.854 114.446,158.605 114.583,158.957C114.72,159.309 115.027,159.484 115.506,159.484C115.965,159.484 116.265,159.308 116.407,158.956C116.548,158.603 116.619,157.776 116.619,156.474L116.619,153.493L122.786,153.493L122.786,154.417C122.786,156.872 122.613,158.613 122.266,159.64C121.92,160.667 121.153,161.566 119.966,162.339C118.78,163.112 117.318,163.498 115.579,163.498C113.773,163.498 112.283,163.171 111.111,162.517C109.94,161.862 109.163,160.957 108.782,159.799C108.402,158.642 108.211,156.901 108.211,154.577L108.211,147.648C108.211,145.939 108.27,144.658 108.387,143.803C108.504,142.949 108.853,142.126 109.434,141.335C109.767,140.881 110.174,140.483 110.655,140.14L109.359,142.52L114.888,140.125L117,142.52L119.112,140.125L121.478,141.149Z" style="fill:rgb(212,0,0);fill-rule:nonzero;"/>
                    </g>
                    <g transform="matrix(29.9636,-1.47806,1.47806,29.9636,237.738,-13.3588)">
                        <path d="M0.511,-0.328C0.511,-0.248 0.509,-0.192 0.505,-0.159C0.501,-0.126 0.49,-0.096 0.47,-0.068C0.45,-0.041 0.424,-0.02 0.39,-0.005C0.357,0.009 0.318,0.017 0.273,0.017C0.231,0.017 0.193,0.01 0.159,-0.004C0.125,-0.018 0.098,-0.039 0.078,-0.066C0.057,-0.094 0.045,-0.124 0.041,-0.157C0.037,-0.189 0.035,-0.246 0.035,-0.328L0.035,-0.463C0.035,-0.542 0.037,-0.599 0.041,-0.632C0.045,-0.665 0.056,-0.695 0.076,-0.722C0.096,-0.75 0.122,-0.771 0.156,-0.785C0.189,-0.8 0.228,-0.807 0.273,-0.807C0.315,-0.807 0.353,-0.8 0.387,-0.786C0.421,-0.773 0.448,-0.752 0.468,-0.724C0.489,-0.696 0.501,-0.666 0.505,-0.634C0.509,-0.601 0.511,-0.544 0.511,-0.463L0.511,-0.328ZM0.305,-0.587C0.305,-0.624 0.303,-0.648 0.299,-0.658C0.295,-0.668 0.287,-0.673 0.274,-0.673C0.263,-0.673 0.255,-0.669 0.249,-0.661C0.244,-0.653 0.241,-0.628 0.241,-0.587L0.241,-0.218C0.241,-0.172 0.243,-0.144 0.246,-0.133C0.25,-0.123 0.259,-0.117 0.272,-0.117C0.286,-0.117 0.295,-0.123 0.299,-0.136C0.303,-0.148 0.305,-0.178 0.305,-0.224L0.305,-0.587Z" style="fill:rgb(212,0,0);fill-rule:nonzero;"/>
                    </g>
                </g>
                <g transform="matrix(-0.910545,-0.413409,0.413409,-0.910545,441.992,743.953)">
                    <g transform="matrix(-10.7085,28.0237,-28.0237,-10.7085,401.534,179.918)">
                        <path d="M0.511,-0.328C0.511,-0.248 0.509,-0.192 0.505,-0.159C0.501,-0.126 0.49,-0.096 0.47,-0.068C0.45,-0.041 0.424,-0.02 0.39,-0.005C0.357,0.009 0.318,0.017 0.273,0.017C0.231,0.017 0.193,0.01 0.159,-0.004C0.125,-0.018 0.098,-0.039 0.078,-0.066C0.057,-0.094 0.045,-0.124 0.041,-0.157C0.037,-0.189 0.035,-0.246 0.035,-0.328L0.035,-0.463C0.035,-0.542 0.037,-0.599 0.041,-0.632C0.045,-0.665 0.056,-0.695 0.076,-0.722C0.096,-0.75 0.122,-0.771 0.156,-0.785C0.189,-0.8 0.228,-0.807 0.273,-0.807C0.315,-0.807 0.353,-0.8 0.387,-0.786C0.421,-0.773 0.448,-0.752 0.468,-0.724C0.489,-0.696 0.501,-0.666 0.505,-0.634C0.509,-0.601 0.511,-0.544 0.511,-0.463L0.511,-0.328ZM0.305,-0.587C0.305,-0.624 0.303,-0.648 0.299,-0.658C0.295,-0.668 0.287,-0.673 0.274,-0.673C0.263,-0.673 0.255,-0.669 0.249,-0.661C0.244,-0.653 0.241,-0.628 0.241,-0.587L0.241,-0.218C0.241,-0.172 0.243,-0.144 0.246,-0.133C0.25,-0.123 0.259,-0.117 0.272,-0.117C0.286,-0.117 0.295,-0.123 0.299,-0.136C0.303,-0.148 0.305,-0.178 0.305,-0.224L0.305,-0.587Z" style="fill:rgb(212,0,0);fill-rule:nonzero;"/>
                    </g>
                    <g transform="matrix(-0.218977,0.97573,-0.97573,-0.218977,626.005,-74.8078)">
                        <path d="M272.341,139.284L275.845,139.284L279.302,149.963L279.302,139.284L284.458,139.284L284.458,163L279.053,163L275.845,152.219L275.845,163L270.688,163L270.688,148.288C272.734,148.288 274.395,146.159 274.395,143.537C274.395,141.676 273.558,140.063 272.341,139.284Z" style="fill:rgb(212,0,0);fill-rule:nonzero;"/>
                    </g>
                    <g transform="matrix(0.0185708,0.999828,-0.999828,0.0185708,566.018,-129.921)">
                        <path d="M254.315,147.018L255.341,139.284L264.254,139.284L267.781,163L261.479,163L261.148,158.737L258.942,158.737L258.571,163L252.195,163L253.768,151.14C253.814,151.141 253.86,151.142 253.906,151.142C255.613,151.142 257,150.214 257,149.071C257,148.021 255.83,147.152 254.315,147.018ZM260.986,154.533C260.674,151.847 260.361,148.527 260.047,144.572C259.418,149.113 259.024,152.434 258.863,154.533L260.986,154.533Z" style="fill:rgb(212,0,0);fill-rule:nonzero;"/>
                    </g>
                    <g transform="matrix(0.250845,0.968027,-0.968027,0.250845,500.188,-170.129)">
                        <path d="M228.846,160.618L226.363,139.284L232.354,139.284L233.636,155.559C233.863,151.419 234.432,145.994 235.341,139.284L241.745,139.284C241.83,139.978 242.054,142.585 242.418,147.106L243.099,156.13C243.45,150.389 244.023,144.774 244.82,139.284L250.811,139.284L248.065,163L240.366,163C240.349,162.913 240.332,162.826 240.315,162.738L241.511,162.217L240.217,162.217C239.573,158.766 239,154.881 238.499,150.563C238.263,152.472 237.727,156.357 236.891,162.217L236.253,162.217L236.755,160.144L233.625,161.071L232,158.071L230.375,161.071L228.846,160.618Z" style="fill:rgb(212,0,0);fill-rule:nonzero;"/>
                    </g>
                    <g transform="matrix(0.402357,0.915483,-0.915483,0.402357,453.985,-191.521)">
                        <path d="M223.434,153.171C223.434,155.554 223.377,157.241 223.265,158.232C223.153,159.223 222.801,160.129 222.21,160.949C221.62,161.77 220.821,162.399 219.815,162.839C218.81,163.278 217.638,163.498 216.3,163.498C215.03,163.498 213.89,163.291 212.879,162.875C211.869,162.46 211.056,161.838 210.44,161.008C209.825,160.178 209.459,159.274 209.342,158.298C209.225,157.321 209.166,155.612 209.166,153.171L209.166,149.113C209.166,146.73 209.222,145.043 209.334,144.052C209.447,143.061 209.798,142.155 210.389,141.335C210.98,140.515 211.778,139.885 212.784,139.445C213.79,139.006 214.962,138.786 216.3,138.786C217.569,138.786 218.709,138.994 219.72,139.409C220.731,139.824 221.544,140.446 222.159,141.276C222.774,142.106 223.141,143.01 223.258,143.986C223.375,144.963 223.434,146.672 223.434,149.113L223.434,153.171ZM217.267,145.378C217.267,144.274 217.206,143.569 217.083,143.261C216.961,142.954 216.71,142.8 216.329,142.8C216.007,142.8 215.76,142.924 215.589,143.173C215.418,143.422 215.333,144.157 215.333,145.378L215.333,156.452C215.333,157.829 215.389,158.679 215.501,159.001C215.614,159.323 215.875,159.484 216.285,159.484C216.705,159.484 216.974,159.299 217.091,158.928C217.208,158.557 217.267,157.673 217.267,156.276L217.267,145.378ZM221.2,150.957C221.472,150.908 221.652,150.648 221.603,150.376L221.237,148.34C221.188,148.068 220.928,147.887 220.656,147.936L219.672,148.113C219.4,148.162 219.22,148.422 219.269,148.694L219.635,150.731C219.684,151.002 219.944,151.183 220.216,151.134L221.2,150.957Z" style="fill:rgb(212,0,0);fill-rule:nonzero;"/>
                    </g>
                    <g transform="matrix(16.2097,25.2438,-25.2438,16.2097,376.078,42.6137)">
                        <path d="M0.041,-0.791L0.187,-0.791C0.284,-0.791 0.349,-0.787 0.384,-0.779C0.418,-0.772 0.446,-0.753 0.468,-0.722C0.489,-0.691 0.5,-0.642 0.5,-0.575C0.5,-0.513 0.492,-0.472 0.477,-0.451C0.462,-0.43 0.432,-0.417 0.387,-0.413C0.427,-0.403 0.455,-0.389 0.469,-0.372C0.483,-0.355 0.491,-0.34 0.495,-0.325C0.498,-0.311 0.5,-0.272 0.5,-0.208L0.5,-0L0.309,-0L0.309,-0.263C0.309,-0.305 0.306,-0.331 0.299,-0.341C0.292,-0.351 0.275,-0.356 0.247,-0.356L0.247,-0L0.041,-0L0.041,-0.791ZM0.247,-0.655L0.247,-0.479C0.27,-0.479 0.286,-0.483 0.295,-0.489C0.304,-0.495 0.309,-0.516 0.309,-0.551L0.309,-0.594C0.309,-0.619 0.305,-0.636 0.296,-0.644C0.287,-0.651 0.27,-0.655 0.247,-0.655Z" style="fill:rgb(212,0,0);fill-rule:nonzero;"/>
                    </g>
                    <g transform="matrix(0.705287,0.708922,-0.708922,0.705287,352.122,-212.602)">
                        <path d="M180.024,163.496C178.701,163.472 177.526,163.238 176.501,162.795C175.417,162.326 174.606,161.716 174.069,160.964C173.532,160.212 173.215,159.418 173.117,158.583C173.019,157.749 172.97,155.993 172.97,153.317L172.97,139.284L179.137,139.284L179.137,157.067C179.137,158.103 179.194,158.764 179.306,159.052C179.418,159.34 179.645,159.484 179.987,159.484C180.378,159.484 180.629,159.326 180.741,159.008C180.854,158.691 180.91,157.941 180.91,156.76L180.91,139.284L187.077,139.284L187.077,155.134C187.077,156.931 187.018,158.193 186.901,158.92C186.877,159.071 186.843,159.222 186.799,159.373C186.711,159.362 186.621,159.356 186.53,159.356L182.095,159.356C180.952,159.356 180.024,160.284 180.024,161.427L180.024,163.496Z" style="fill:rgb(212,0,0);fill-rule:nonzero;"/>
                    </g>
                    <g transform="matrix(23.8485,18.2002,-18.2002,23.8485,339.484,11.0314)">
                        <path d="M0.385,-0.791L0.385,-0.632L0.232,-0.158L0.385,-0.158L0.385,-0L0.006,-0L0.006,-0.115L0.164,-0.632L0.024,-0.632L0.024,-0.791L0.385,-0.791Z" style="fill:rgb(212,0,0);fill-rule:nonzero;"/>
                    </g>
                    <g transform="matrix(0.869396,0.494116,-0.494116,0.869396,274.173,-213.363)">
                        <path d="M141.184,145.938L141.184,139.284L146.34,139.284L149.797,149.963L149.797,139.284L154.954,139.284L154.954,163L149.548,163L146.34,152.219L146.34,163L141.184,163L141.184,147.151L145.052,148.458C145.202,148.509 145.365,148.428 145.416,148.278L145.6,147.733C145.65,147.583 145.57,147.42 145.419,147.369L141.184,145.938Z" style="fill:rgb(212,0,0);fill-rule:nonzero;"/>
                    </g>
                    <g transform="matrix(28.765,8.51922,-8.51922,28.765,293.176,-10.1889)">
                        <path d="M0.041,-0.791L0.384,-0.791L0.384,-0.632L0.247,-0.632L0.247,-0.482L0.375,-0.482L0.375,-0.332L0.247,-0.332L0.247,-0.158L0.397,-0.158L0.397,-0L0.041,-0L0.041,-0.791Z" style="fill:rgb(212,0,0);fill-rule:nonzero;"/>
                    </g>
                    <g transform="matrix(0.994747,0.102361,-0.102361,0.994747,175.356,-186.767)">
                        <path d="M121.478,141.149C121.811,141.553 122.062,141.991 122.23,142.465C122.601,143.514 122.786,145.145 122.786,147.358L122.786,149.611L116.619,149.611L116.619,145.489C116.619,144.291 116.553,143.543 116.422,143.246C116.29,142.948 115.999,142.8 115.55,142.8C115.042,142.8 114.72,142.98 114.583,143.342C114.446,143.703 114.378,144.484 114.378,145.686L114.378,156.701C114.378,157.854 114.446,158.605 114.583,158.957C114.72,159.309 115.027,159.484 115.506,159.484C115.965,159.484 116.265,159.308 116.407,158.956C116.548,158.603 116.619,157.776 116.619,156.474L116.619,153.493L122.786,153.493L122.786,154.417C122.786,156.872 122.613,158.613 122.266,159.64C121.92,160.667 121.153,161.566 119.966,162.339C118.78,163.112 117.318,163.498 115.579,163.498C113.773,163.498 112.283,163.171 111.111,162.517C109.94,161.862 109.163,160.957 108.782,159.799C108.402,158.642 108.211,156.901 108.211,154.577L108.211,147.648C108.211,145.939 108.27,144.658 108.387,143.803C108.504,142.949 108.853,142.126 109.434,141.335C109.767,140.881 110.174,140.483 110.655,140.14L109.359,142.52L114.888,140.125L117,142.52L119.112,140.125L121.478,141.149Z" style="fill:rgb(212,0,0);fill-rule:nonzero;"/>
                    </g>
                    <g transform="matrix(29.9636,-1.47806,1.47806,29.9636,237.738,-13.3588)">
                        <path d="M0.511,-0.328C0.511,-0.248 0.509,-0.192 0.505,-0.159C0.501,-0.126 0.49,-0.096 0.47,-0.068C0.45,-0.041 0.424,-0.02 0.39,-0.005C0.357,0.009 0.318,0.017 0.273,0.017C0.231,0.017 0.193,0.01 0.159,-0.004C0.125,-0.018 0.098,-0.039 0.078,-0.066C0.057,-0.094 0.045,-0.124 0.041,-0.157C0.037,-0.189 0.035,-0.246 0.035,-0.328L0.035,-0.463C0.035,-0.542 0.037,-0.599 0.041,-0.632C0.045,-0.665 0.056,-0.695 0.076,-0.722C0.096,-0.75 0.122,-0.771 0.156,-0.785C0.189,-0.8 0.228,-0.807 0.273,-0.807C0.315,-0.807 0.353,-0.8 0.387,-0.786C0.421,-0.773 0.448,-0.752 0.468,-0.724C0.489,-0.696 0.501,-0.666 0.505,-0.634C0.509,-0.601 0.511,-0.544 0.511,-0.463L0.511,-0.328ZM0.305,-0.587C0.305,-0.624 0.303,-0.648 0.299,-0.658C0.295,-0.668 0.287,-0.673 0.274,-0.673C0.263,-0.673 0.255,-0.669 0.249,-0.661C0.244,-0.653 0.241,-0.628 0.241,-0.587L0.241,-0.218C0.241,-0.172 0.243,-0.144 0.246,-0.133C0.25,-0.123 0.259,-0.117 0.272,-0.117C0.286,-0.117 0.295,-0.123 0.299,-0.136C0.303,-0.148 0.305,-0.178 0.305,-0.224L0.305,-0.587Z" style="fill:rgb(212,0,0);fill-rule:nonzero;"/>
                    </g>
                </g>
            </g>
            <g id="Start" transform="matrix(1,0,0,1,-42.2689,12.6386)">
                <g transform="matrix(77.9613,0,0,77.9613,133,214.631)">
                    <path d="M0.477,-0.551L0.286,-0.551L0.286,-0.61C0.286,-0.637 0.283,-0.655 0.278,-0.662C0.273,-0.67 0.265,-0.673 0.254,-0.673C0.242,-0.673 0.232,-0.668 0.226,-0.658C0.219,-0.648 0.216,-0.633 0.216,-0.612C0.216,-0.586 0.22,-0.566 0.227,-0.553C0.234,-0.539 0.253,-0.523 0.285,-0.504C0.377,-0.45 0.434,-0.405 0.458,-0.371C0.482,-0.336 0.494,-0.28 0.494,-0.202C0.494,-0.146 0.487,-0.104 0.474,-0.078C0.461,-0.051 0.435,-0.029 0.397,-0.01C0.36,0.008 0.316,0.017 0.266,0.017C0.211,0.017 0.164,0.006 0.125,-0.015C0.086,-0.035 0.06,-0.062 0.048,-0.094C0.036,-0.126 0.03,-0.172 0.03,-0.231L0.03,-0.283L0.221,-0.283L0.221,-0.187C0.221,-0.157 0.224,-0.138 0.229,-0.13C0.235,-0.121 0.244,-0.117 0.258,-0.117C0.271,-0.117 0.282,-0.123 0.288,-0.133C0.295,-0.144 0.298,-0.16 0.298,-0.181C0.298,-0.228 0.292,-0.258 0.279,-0.272C0.266,-0.287 0.234,-0.311 0.183,-0.344C0.132,-0.378 0.098,-0.403 0.082,-0.418C0.065,-0.433 0.051,-0.454 0.04,-0.481C0.029,-0.508 0.024,-0.543 0.024,-0.585C0.024,-0.646 0.032,-0.69 0.047,-0.718C0.063,-0.746 0.088,-0.768 0.122,-0.783C0.157,-0.799 0.198,-0.807 0.247,-0.807C0.3,-0.807 0.346,-0.799 0.384,-0.781C0.421,-0.764 0.446,-0.742 0.458,-0.716C0.47,-0.69 0.477,-0.645 0.477,-0.583L0.477,-0.551Z" style="fill:rgb(202,0,0);fill-rule:nonzero;"/>
                </g>
                <g transform="matrix(77.9613,0,0,77.9613,178.147,214.631)">
                    <path d="M0.455,-0.791L0.455,-0.632L0.333,-0.632L0.333,-0L0.127,-0L0.127,-0.632L0.006,-0.632L0.006,-0.791L0.455,-0.791Z" style="fill:rgb(202,0,0);fill-rule:nonzero;"/>
                </g>
                <g transform="matrix(77.9613,0,0,77.9613,215.794,214.631)">
                    <path d="M0.396,-0.791L0.514,-0L0.304,-0L0.293,-0.142L0.219,-0.142L0.207,-0L-0.006,-0L0.099,-0.791L0.396,-0.791ZM0.287,-0.282C0.277,-0.372 0.267,-0.482 0.256,-0.614C0.235,-0.463 0.222,-0.352 0.217,-0.282L0.287,-0.282Z" style="fill:rgb(202,0,0);fill-rule:nonzero;"/>
                </g>
                <g transform="matrix(77.9613,0,0,77.9613,260.217,214.631)">
                    <path d="M0.041,-0.791L0.187,-0.791C0.284,-0.791 0.349,-0.787 0.384,-0.779C0.418,-0.772 0.446,-0.753 0.468,-0.722C0.489,-0.691 0.5,-0.642 0.5,-0.575C0.5,-0.513 0.492,-0.472 0.477,-0.451C0.462,-0.43 0.432,-0.417 0.387,-0.413C0.427,-0.403 0.455,-0.389 0.469,-0.372C0.483,-0.355 0.491,-0.34 0.495,-0.325C0.498,-0.311 0.5,-0.272 0.5,-0.208L0.5,-0L0.309,-0L0.309,-0.263C0.309,-0.305 0.306,-0.331 0.299,-0.341C0.292,-0.351 0.275,-0.356 0.247,-0.356L0.247,-0L0.041,-0L0.041,-0.791ZM0.247,-0.655L0.247,-0.479C0.27,-0.479 0.286,-0.483 0.295,-0.489C0.304,-0.495 0.309,-0.516 0.309,-0.551L0.309,-0.594C0.309,-0.619 0.305,-0.636 0.296,-0.644C0.287,-0.651 0.27,-0.655 0.247,-0.655Z" style="fill:rgb(202,0,0);fill-rule:nonzero;"/>
                </g>
                <g transform="matrix(77.9613,0,0,77.9613,307.039,214.631)">
                    <path d="M0.455,-0.791L0.455,-0.632L0.333,-0.632L0.333,-0L0.127,-0L0.127,-0.632L0.006,-0.632L0.006,-0.791L0.455,-0.791Z" style="fill:rgb(202,0,0);fill-rule:nonzero;"/>
                </g>
            </g>
        </g>
    </g>
</svg>
